<svg xmlns="http://www.w3.org/2000/svg" viewBox="0 0 32 32">
  <path d="M6,10l22.041,0c1.082,0 1.959,0.877 1.959,1.959l0,14.082c0,1.082 -0.877,1.959 -1.959,1.959c0,0 -16.393,0 -20.195,0c-0.489,0 -0.959,-0.194 -1.305,-0.541c-0.347,-0.346 -0.541,-0.816 -0.541,-1.305c0,-4.591 0,-16.154 0,-16.154Z" fill="#d4d4d8"/>
  <path d="M3.655,7l20.386,0c1.082,0 1.959,0.877 1.959,1.959l0,14.082c0,1.082 -0.877,1.959 -1.959,1.959l-20.082,0c-1.082,0 -1.959,-0.877 -1.959,-1.959c0,0 0,-10.884 0,-14.386c0,-0.439 0.174,-0.86 0.485,-1.17c0.31,-0.311 0.731,-0.485 1.17,-0.485Z" fill="#ffffff"/>
  <path d="M3.655,7l20.386,0c1.082,0 1.959,0.877 1.959,1.959l0,3.041l-24,0c0,0 0,-2.447 0,-3.345c0,-0.439 0.174,-0.86 0.485,-1.17c0.31,-0.311 0.731,-0.485 1.17,-0.485Z" fill="#006FEE"/>
  <rect width="3" height="3" x="6" y="14" rx="0.5" fill="#338EF7"/>
  <rect width="3" height="3" x="12.5" y="14" rx="0.5" fill="#338EF7"/>
  <rect width="3" height="3" x="19" y="14" rx="0.5" fill="#338EF7"/>
  <rect width="3" height="3" x="6" y="20" rx="0.5" fill="#338EF7"/>
  <rect width="3" height="3" x="12.5" y="20" rx="0.5" fill="#338EF7"/>
  <rect width="3" height="3" x="19" y="20" rx="0.5" fill="#006FEE"/>
  <path d="M19.5 4c.828 0 1.5.672 1.5 1.5v3c0 .828-.672 1.5-1.5 1.5-.828 0-1.5-.672-1.5-1.5v-3c0-.828.672-1.5 1.5-1.5ZM8.5 4c.828 0 1.5.672 1.5 1.5v3c0 .828-.672 1.5-1.5 1.5-.828 0-1.5-.672-1.5-1.5v-3c0-.828.672-1.5 1.5-1.5Z" fill="#006FEE"/>
</svg>
